<?xml version="1.0" standalone="no"?>
<!DOCTYPE svg PUBLIC "-//W3C//DTD SVG 20010904//EN"
 "http://www.w3.org/TR/2001/REC-SVG-20010904/DTD/svg10.dtd">
<svg version="1.0" xmlns="http://www.w3.org/2000/svg"
 width="800.000000pt" height="800.000000pt" viewBox="0 0 800.000000 800.000000"
 preserveAspectRatio="xMidYMid meet">
<metadata>
Created by potrace 1.14, written by Peter Selinger 2001-2017
</metadata>
<g transform="translate(0.000000,800.000000) scale(0.100000,-0.100000)"
fill="#000000" stroke="none">
<path d="M1960 7660 c-92 -10 -274 -51 -355 -80 -170 -61 -375 -173 -506 -277
-73 -58 -229 -214 -293 -293 -58 -71 -65 -81 -113 -155 -137 -212 -219 -416
-268 -668 -23 -118 -25 -152 -25 -396 0 -201 4 -291 16 -357 8 -49 22 -127 29
-174 24 -153 130 -519 170 -592 8 -14 15 -31 15 -38 0 -17 96 -239 121 -280 5
-8 14 -25 19 -37 6 -13 14 -33 20 -45 5 -13 14 -30 20 -38 5 -8 40 -70 77
-138 37 -68 78 -140 90 -160 12 -20 31 -53 42 -72 35 -58 173 -263 239 -354
12 -17 33 -47 47 -66 14 -19 35 -49 47 -67 75 -105 428 -538 524 -643 17 -19
71 -80 119 -135 48 -55 125 -140 170 -190 45 -49 102 -112 125 -140 24 -27 93
-104 154 -169 61 -66 122 -131 136 -146 55 -59 256 -275 270 -290 192 -204
180 -191 670 -699 494 -511 455 -474 482 -459 22 12 140 132 518 524 193 200
466 485 540 564 165 175 374 399 420 450 278 305 451 497 570 635 19 22 38 42
41 45 16 14 373 445 434 525 149 195 321 440 433 620 14 22 34 52 44 67 10 15
23 38 28 50 6 13 24 46 40 73 32 54 68 120 94 175 10 19 21 42 27 50 5 8 14
25 19 38 5 13 24 53 41 90 72 156 97 215 115 274 8 25 21 59 29 75 8 15 15 35
15 43 1 8 8 33 16 55 36 92 109 393 146 600 17 99 21 159 21 345 0 208 -2 234
-26 340 -52 226 -116 419 -170 515 -6 11 -21 40 -34 65 -27 53 -32 60 -102
165 -180 267 -422 478 -706 615 -141 68 -232 100 -393 137 -107 24 -135 26
-342 27 -211 0 -232 -2 -344 -28 -133 -30 -249 -66 -313 -96 -24 -11 -46 -20
-50 -20 -5 0 -37 -15 -73 -34 -234 -120 -358 -214 -601 -456 -170 -169 -302
-324 -373 -440 -42 -67 -75 -110 -85 -110 -4 0 -13 12 -20 26 -36 80 -174 261
-325 427 -84 92 -320 312 -382 357 -222 157 -454 272 -644 320 -172 43 -229
51 -398 55 -98 2 -211 0 -252 -5z m4145 -419 c185 -46 284 -89 440 -190 85
-54 275 -228 275 -250 0 -6 9 -13 20 -16 11 -3 20 -12 20 -19 0 -7 14 -30 30
-51 17 -21 30 -46 30 -56 0 -10 6 -22 14 -26 13 -7 20 -32 17 -58 -1 -5 -10 5
-21 23 -11 17 -25 32 -32 32 -6 0 -22 9 -34 21 -20 19 -26 20 -58 9 -39 -13
-513 2 -616 20 -30 5 -111 12 -180 15 -69 3 -159 10 -200 15 -108 14 -565 40
-711 40 -68 0 -166 5 -216 10 -83 9 -98 8 -143 -10 l-50 -20 0 25 c0 16 6 25
15 25 9 0 21 11 27 25 6 13 19 27 30 30 10 4 18 13 18 21 0 8 11 19 25 24 14
5 25 13 25 18 0 10 123 102 210 158 61 39 234 124 253 124 7 0 25 7 41 15 36
19 220 65 306 75 36 5 128 7 205 5 112 -4 164 -10 260 -34z m-3590 -9 c147
-40 261 -83 325 -123 8 -5 30 -16 48 -24 18 -9 41 -23 51 -33 10 -9 33 -26 51
-37 65 -39 71 -42 88 -59 9 -9 36 -33 60 -54 23 -21 42 -43 42 -49 0 -6 9 -13
20 -16 22 -6 28 -37 7 -37 -7 0 -21 6 -32 13 -16 11 -95 12 -420 5 -220 -5
-425 -11 -455 -14 -212 -20 -943 -31 -1015 -14 -33 7 -47 5 -88 -16 -57 -28
-57 -28 -57 -10 0 8 9 18 20 21 11 3 20 13 20 22 0 13 132 149 190 196 71 56
209 133 325 179 44 18 217 67 285 81 14 3 115 4 225 2 186 -3 208 -5 310 -33z"/>
</g>
</svg>
