<svg width="600" height="600" viewBox="0 0 600 600" fill="none" xmlns="http://www.w3.org/2000/svg">
<path fill-rule="evenodd" clip-rule="evenodd" d="M575.295 419.409C529.137 525.679 423.248 600 300 600C166.771 600 53.8259 513.153 14.6885 392.984L49.5647 371.344C80.5833 480.437 180.961 560.332 300 560.332C414.212 560.332 511.246 486.785 546.323 384.467L575.295 419.409ZM585.969 390.941C595.083 362.257 600 331.703 600 300C600 134.315 465.685 0 300 0C134.315 0 0 134.315 0 300C0 324.242 2.87541 347.813 8.3038 370.39L44.1631 348.425C41.2115 332.735 39.6676 316.548 39.6676 300C39.6676 156.222 156.222 39.6676 300 39.6676C443.778 39.6676 560.332 156.222 560.332 300C560.332 320.318 558.005 340.093 553.602 359.072L585.969 390.941Z" fill="white"/>
<path fill-rule="evenodd" clip-rule="evenodd" d="M54.4625 368.296C51.7363 370.005 48.8774 371.798 45.8436 373.713C46.0859 378.215 46.2713 382.56 46.4511 386.773C48.5647 436.29 49.9078 467.757 133.587 524.214C221.298 585.498 275.128 594.81 380.548 560.823C473.344 525.286 516.055 494.548 552.497 391.939C534.039 369.222 521.535 356.589 491.624 335.506C485.769 332.234 478.476 329.57 470.297 326.583C453.97 320.62 434.111 313.366 415.111 297.408C408.561 293.069 396.403 274.83 378.022 247.255C358.903 218.575 333.052 179.794 299.777 136.05C294.486 142.166 288.887 150.225 282.583 159.299C268.991 178.863 252.12 203.146 227.986 222.855C211.615 226.051 153.042 261.183 125.306 314.422C92.4325 344.49 78.6863 353.108 54.4625 368.296ZM166.799 316.777C162.065 341.357 155.6 374.925 113.419 422.453C114.396 419.365 115.349 416.367 116.271 413.467C124.07 388.935 129.661 371.348 128.987 364.37C127.892 364.016 127.249 364.414 125.843 365.284C122.601 367.289 115.304 371.803 89.0725 375.413C128.63 348.353 147 326.226 177.707 284.823C171.285 293.482 169.279 303.895 166.799 316.777ZM133.539 477.26C158.317 453.331 171.993 438.315 194.842 400.051C192.445 371.495 208.477 336.703 234.779 308.396C247.737 293.938 251.116 285.236 255.09 274.999C255.974 272.722 256.888 270.369 257.943 267.86C262.505 241.844 273.615 208.373 296.62 182.536C288.381 204.981 286.176 217.088 287.975 237.551C301.339 266.81 290.534 289.936 249.071 339.329C270.028 335.813 281.082 327.735 299.477 301.806C309.786 327.581 322.458 345.423 350.064 373.517C282.72 365.431 251.431 390.057 213.704 468.222L200.352 437.766C157.626 473.576 140.066 485.815 133.539 477.26ZM427.643 408.767C418.836 414.289 384.511 441.278 372.65 451.74C384.712 424.615 394.186 412.12 416.335 386.151C424.225 359.267 423.977 350.441 423.754 342.535C423.663 339.305 423.576 336.229 424.051 332.138C429.723 334.578 434.237 336.731 438.098 338.573C442.934 340.881 446.746 342.699 450.525 343.978C473.507 352.093 484.792 358.88 502.643 375.462C476.648 367.371 465.048 366.182 447.948 368.104C448.35 376.569 436 403.528 427.643 408.767Z" fill="white"/>
<path d="M36.1622 295.61C40.88 295.431 64.4134 299.01 109.399 257.134C123.606 237.502 157.75 213.744 197.408 211.248C192.693 215.131 141.059 247.025 109.399 297.762C103.421 307.343 44.1224 348.44 44.1224 348.44L40.8119 340.365L36.1622 295.61Z" fill="white"/>
<path d="M381.878 213.303C388.241 213.303 424.655 255.635 437.72 257.284C450.356 260.626 458.631 261.662 490.807 270.285C512.825 276.263 531.45 287.976 570.038 309.678L553.931 359.392C533.529 338.535 527.113 332.976 509.235 321.295C490.495 305.915 471.971 305.763 444.446 290.686C430.228 287.815 392.445 236.937 381.878 213.303Z" fill="white"/>
</svg>
