<svg width="25" height="36" viewBox="0 0 25 36" fill="none" xmlns="http://www.w3.org/2000/svg">
<path d="M12.25 8.45654C13.4103 8.45654 14.5231 8.91748 15.3436 9.73795C16.1641 10.5584 16.625 11.6712 16.625 12.8315C16.625 13.4061 16.5118 13.975 16.292 14.5058C16.0721 15.0366 15.7498 15.5189 15.3436 15.9251C14.9373 16.3314 14.455 16.6537 13.9242 16.8735C13.3934 17.0934 12.8245 17.2065 12.25 17.2065C11.0897 17.2065 9.97688 16.7456 9.15641 15.9251C8.33594 15.1047 7.875 13.9919 7.875 12.8315C7.875 11.6712 8.33594 10.5584 9.15641 9.73795C9.97688 8.91748 11.0897 8.45654 12.25 8.45654ZM12.25 0.581543C15.4989 0.581543 18.6147 1.87216 20.9121 4.16948C23.2094 6.46681 24.5 9.58264 24.5 12.8315C24.5 22.019 12.25 35.5815 12.25 35.5815C12.25 35.5815 0 22.019 0 12.8315C0 9.58264 1.29062 6.46681 3.58794 4.16948C5.88526 1.87216 9.0011 0.581543 12.25 0.581543ZM12.25 4.08154C9.92936 4.08154 7.70376 5.00342 6.06282 6.64436C4.42187 8.2853 3.5 10.5109 3.5 12.8315C3.5 14.5815 3.5 18.0815 12.25 29.824C21 18.0815 21 14.5815 21 12.8315C21 10.5109 20.0781 8.2853 18.4372 6.64436C16.7962 5.00342 14.5706 4.08154 12.25 4.08154Z" fill="white"/>
</svg>
