<svg width="71" height="71" viewBox="0 0 71 71" fill="none" xmlns="http://www.w3.org/2000/svg">
<path fill-rule="evenodd" clip-rule="evenodd" d="M67.7661 49.2303C62.381 61.6285 50.0273 70.2993 35.6484 70.2993C20.105 70.2993 6.92813 60.1672 2.3621 46.1474L6.43099 43.6228C10.0498 56.3503 21.7605 65.6714 35.6484 65.6714C48.9731 65.6714 60.2938 57.0909 64.3861 45.1538L67.7661 49.2303ZM69.0114 45.9091C70.0747 42.5626 70.6484 38.998 70.6484 35.2993C70.6484 15.9694 54.9783 0.299316 35.6484 0.299316C16.3185 0.299316 0.648438 15.9694 0.648438 35.2993C0.648438 38.1275 0.983902 40.8775 1.61721 43.5115L5.8008 40.9489C5.45645 39.1184 5.27633 37.2299 5.27633 35.2993C5.27633 18.5252 18.8743 4.92721 35.6484 4.92721C52.4225 4.92721 66.0205 18.5252 66.0205 35.2993C66.0205 37.6697 65.749 39.9768 65.2353 42.191L69.0114 45.9091Z" fill="white"/>
<path fill-rule="evenodd" clip-rule="evenodd" d="M7.00163 43.2667C6.68357 43.4661 6.35004 43.6753 5.99609 43.8987C6.02436 44.4239 6.04599 44.9309 6.06697 45.4224C6.31355 51.1994 6.47025 54.8705 16.2329 61.4572C26.4658 68.607 32.746 69.6934 45.045 65.7282C55.8712 61.5822 60.8541 57.9961 65.1057 46.0251C62.9523 43.3748 61.4935 41.9009 58.0038 39.4412C57.3208 39.0595 56.4699 38.7487 55.5157 38.4002C53.6109 37.7045 51.294 36.8582 49.0773 34.9965C48.3132 34.4902 46.8947 32.3624 44.7503 29.1453C42.5197 25.7993 39.5038 21.2748 35.6217 16.1714C35.0044 16.8849 34.3512 17.8251 33.6157 18.8837C32.03 21.1662 30.0617 23.9992 27.2461 26.2986C25.3361 26.6715 18.5026 30.7702 15.2667 36.9814C11.4315 40.4894 9.82774 41.4948 7.00163 43.2667ZM20.1076 37.2562C19.5553 40.1238 18.801 44.0401 13.8799 49.585C13.9939 49.2248 14.1051 48.875 14.2127 48.5367C15.1225 45.6746 15.7748 43.6228 15.6962 42.8087C15.5684 42.7674 15.4934 42.8138 15.3294 42.9153C14.9512 43.1492 14.0998 43.6759 11.0395 44.097C15.6545 40.94 17.7977 38.3586 21.3802 33.5282C20.631 34.5384 20.3969 35.7533 20.1076 37.2562ZM16.2273 55.9792C19.118 53.1875 20.7136 51.4356 23.3793 46.9715C23.0996 43.6399 24.97 39.5809 28.0386 36.2784C29.5504 34.5916 29.9446 33.5764 30.4082 32.3821C30.5113 32.1164 30.618 31.8419 30.7411 31.5492C31.2733 28.514 32.5695 24.609 35.2534 21.5947C34.2922 24.2133 34.0349 25.6258 34.2448 28.0131C35.8039 31.4267 34.5433 34.1247 29.706 39.8872C32.151 39.477 33.4406 38.5346 35.5867 35.5096C36.7894 38.5166 38.2678 40.5982 41.4885 43.8758C33.6317 42.9325 29.9813 45.8055 25.5798 54.9248L24.0221 51.3716C19.0374 55.5494 16.9887 56.9773 16.2273 55.9792ZM50.5394 47.9883C49.5119 48.6326 45.5073 51.7813 44.1235 53.0019C45.5308 49.8373 46.6361 48.3795 49.2201 45.3498C50.1406 42.2133 50.1117 41.1836 50.0857 40.2613C50.0751 39.8844 50.0649 39.5256 50.1203 39.0483C50.7821 39.333 51.3087 39.5841 51.7591 39.799C52.3233 40.0683 52.7681 40.2804 53.209 40.4296C55.8902 41.3764 57.2068 42.1682 59.2894 44.1028C56.2566 43.1588 54.9033 43.0201 52.9083 43.2443C52.9552 44.2319 51.5144 47.3771 50.5394 47.9883Z" fill="white"/>
<path d="M4.86719 34.7876C5.4176 34.7667 8.16316 35.1842 13.4114 30.2987C15.0689 28.0083 19.0524 25.2365 23.6792 24.9453C23.1291 25.3983 17.1051 29.1193 13.4114 35.0386C12.714 36.1564 5.79588 40.9511 5.79588 40.9511L5.40966 40.009L4.86719 34.7876Z" fill="white"/>
<path d="M45.1992 25.1851C45.9416 25.1851 50.1899 30.1238 51.7141 30.3162C53.1883 30.7061 54.1538 30.827 57.9076 31.833C60.4764 32.5304 62.6493 33.8969 67.1513 36.4288L65.2721 42.2288C62.8919 39.7955 62.1433 39.1469 60.0576 37.7841C57.8712 35.9898 55.7101 35.9721 52.4988 34.2131C50.8401 33.8781 46.4321 27.9424 45.1992 25.1851Z" fill="white"/>
</svg>
